HIERARCHY
ROOT RootJoint
{
    OFFSET   0.000000   0.000000   0.000000
    CHANNELS 6 Xposition Yposition Zposition Xrotation Yrotation Zrotation
    JOINT pelvis_lowerback
    {
        OFFSET   0.000000   0.093605   0.000000
        CHANNELS 3 Xrotation Yrotation Zrotation
        JOINT lowerback_torso
        {
            OFFSET   0.000000   0.100000   0.000000
            CHANNELS 3 Xrotation Yrotation Zrotation
            JOINT torso_head
            {
                OFFSET   0.000000   0.282350   0.000000
                CHANNELS 3 Xrotation Yrotation Zrotation
                End Site
                {
                    OFFSET   0.000000   0.192650   0.000000
                }
            }
            JOINT rTorso_Clavicle
            {
                OFFSET  -0.001000   0.157500   0.000000
                CHANNELS 3 Xrotation Yrotation Zrotation
                JOINT rShoulder
                {
                    OFFSET  -0.117647   0.000000   0.000000
                    CHANNELS 3 Xrotation Yrotation Zrotation
                    JOINT rElbow
                    {
                        OFFSET  -0.245000   0.000000   0.000000
                        CHANNELS 3 Xrotation Yrotation Zrotation
                        JOINT rWrist
                        {
                            OFFSET  -0.240000   0.000000   0.000000
                            CHANNELS 3 Xrotation Yrotation Zrotation
                            End Site
                            {
                                OFFSET  -0.116353  -0.002500   0.000000
                            }
                        }
                    }
                }
            }
            JOINT lTorso_Clavicle
            {
                OFFSET   0.001000   0.157500   0.000000
                CHANNELS 3 Xrotation Yrotation Zrotation
                JOINT lShoulder
                {
                    OFFSET   0.117647   0.000000   0.000000
                    CHANNELS 3 Xrotation Yrotation Zrotation
                    JOINT lElbow
                    {
                        OFFSET   0.245000   0.000000   0.000000
                        CHANNELS 3 Xrotation Yrotation Zrotation
                        JOINT lWrist
                        {
                            OFFSET   0.240000   0.000000   0.000000
                            CHANNELS 3 Xrotation Yrotation Zrotation
                            End Site
                            {
                                OFFSET   0.116353  -0.002500   0.000000
                            }
                        }
                    }
                }
            }
        }
    }
    JOINT rHip
    {
        OFFSET  -0.100000  -0.051395   0.000000
        CHANNELS 3 Xrotation Yrotation Zrotation
        JOINT rKnee
        {
            OFFSET   0.000000  -0.410000   0.000000
            CHANNELS 3 Xrotation Yrotation Zrotation
            JOINT rAnkle
            {
                OFFSET   0.000000  -0.390000   0.000000
                CHANNELS 3 Xrotation Yrotation Zrotation
                JOINT rToeJoint
                {
                    OFFSET   0.000000  -0.050000   0.130000
                    CHANNELS 3 Xrotation Yrotation Zrotation
                    End Site
                    {
                        OFFSET  -0.010000   0.002000   0.060000
                    }
                }
            }
        }
    }
    JOINT lHip
    {
        OFFSET   0.100000  -0.051395   0.000000
        CHANNELS 3 Xrotation Yrotation Zrotation
        JOINT lKnee
        {
            OFFSET   0.000000  -0.410000   0.000000
            CHANNELS 3 Xrotation Yrotation Zrotation
            JOINT lAnkle
            {
                OFFSET   0.000000  -0.390000   0.000000
                CHANNELS 3 Xrotation Yrotation Zrotation
                JOINT lToeJoint
                {
                    OFFSET   0.000000  -0.050000   0.130000
                    CHANNELS 3 Xrotation Yrotation Zrotation
                    End Site
                    {
                        OFFSET   0.010000   0.002000   0.060000
                    }
                }
            }
        }
    }
}
MOTION
Frames: 11
Frame Time:   0.008333
 -2.376719   0.925631   3.975860   0.000000   0.000000   0.000000   0.000000   0.000000   0.000000   0.000000   0.000000   0.000000   0.000000   0.000000   0.000000   0.000000   0.000000   0.000000   0.000000   0.000000   0.000000   0.000000   0.000000   0.000000   0.000000   0.000000   0.000000   0.000000   0.000000   0.000000   0.000000   0.000000   0.000000   0.000000   0.000000   0.000000   0.000000   0.000000   0.000000   0.000000   0.000000   0.000000   0.000000   0.000000   0.000000   0.000000   0.000000   0.000000   0.000000   0.000000   0.000000   0.000000   0.000000   0.000000   0.000000   0.000000   0.000000   0.000000   0.000000   0.000000   0.000000   0.000000   0.000000
 -2.376639   0.926091   3.974770  -0.091117  -0.102185  -0.057113   0.330779   0.088970   0.093922   0.074631  -0.089742  -0.012554  -0.253429   0.082191   0.033051   0.197929  -0.194085   0.110766   0.909770   0.206061   2.165684   0.023921   1.181261  -0.014885   0.311451  -0.588843  -2.495934   0.145436   0.282336  -0.294755   1.164316   0.087928  -2.066396   0.022343  -1.088629   0.015596   0.286348   0.289280   2.626621  -0.655182   0.052157  -0.020954   2.153256   0.001465  -0.000965  -1.643267  -0.234628  -0.025483  -0.086952  -0.000080   0.000215  -0.628764  -0.027717   0.148617   1.769590  -0.001439  -0.001965  -1.029519  -0.021856  -0.042648   0.343848  -0.000144  -0.000454
 -2.376578   0.926848   3.973629  -0.283426  -0.240627  -0.115021   0.719822   0.193576   0.185478   0.258366  -0.151167  -0.032694  -0.467594   0.157713   0.076367   0.393929  -0.298098   0.887972   1.789938   0.527701   4.864041   0.055251   2.338420  -0.026948   0.661137  -0.809868  -4.293199   0.298563   0.510698  -1.307362   2.265674   0.090489  -4.587470   0.050839  -2.140161   0.027667   0.624384   0.294326   4.502958  -1.193349   0.096390  -0.108235   4.415232   0.003941  -0.002852  -3.171791  -0.457021  -0.055973  -0.211572  -0.000259   0.000515  -1.226868  -0.059839   0.373468   3.613423  -0.004002  -0.004076  -1.981769  -0.041634  -0.082393   0.656151  -0.000468  -0.000863
 -2.376568   0.927512   3.972529  -0.483003  -0.397737  -0.167112   1.103065   0.311575   0.259712   0.461554  -0.186782  -0.068774  -0.658627   0.227467   0.122232   0.576222  -0.325801   2.082971   2.631819   0.943477   7.908988   0.086156   3.438096  -0.035575   1.006714  -0.859413  -5.325293   0.444592   0.678879  -2.766378   3.289796   0.010643  -7.321442   0.078188  -3.134163   0.035858   0.960398   0.179971   5.545320  -1.645272   0.136104  -0.254372   6.572030   0.006628  -0.005006  -4.596101  -0.665210  -0.090434  -0.324507  -0.000442   0.000735  -1.823246  -0.092333   0.655815   5.348982  -0.006978  -0.005616  -2.869273  -0.058657  -0.119329   0.942631  -0.000875  -0.001164
 -2.376603   0.927799   3.971509  -0.667442  -0.562675  -0.215264   1.470272   0.439878   0.317246   0.658220  -0.201501  -0.114380  -0.835650   0.292247   0.164564   0.743575  -0.297704   3.544089   3.414015   1.430859  11.112670   0.112692   4.478420  -0.041208   1.345303  -0.803293  -5.754018   0.580847   0.801671  -4.484811   4.238221  -0.140490 -10.133100   0.101152  -4.071389   0.040922   1.288872  -0.005680   5.969324  -2.029274   0.173230  -0.447358   8.599693   0.009153  -0.007081  -5.925881  -0.859645  -0.127949  -0.433958  -0.000627   0.000902  -2.424892  -0.126199   0.984764   6.957129  -0.009886  -0.006487  -3.698774  -0.073174  -0.153635   1.197873  -0.001272  -0.001339
 -2.376654   0.927493   3.970599  -0.832710  -0.728085  -0.262140   1.818364   0.575581   0.365061   0.842186  -0.199232  -0.158078  -1.000625   0.352537   0.200454   0.895760  -0.232460   5.175194   4.112550   1.958189  14.294130   0.132943   5.460018  -0.044288   1.674987  -0.673138  -5.727159   0.706310   0.894457  -6.338826   5.113200  -0.347847 -12.936318   0.118466  -4.952971   0.043537   1.606972  -0.236275   5.969570  -2.353785   0.208883  -0.678085  10.502581   0.011379  -0.008910  -7.167727  -1.040953  -0.167678  -0.540211  -0.000802   0.001021  -3.028489  -0.162634   1.349247   8.444177  -0.012421  -0.006772  -4.474308  -0.085532  -0.185481   1.424603  -0.001609  -0.001408
 -2.376707   0.926444   3.969814  -0.979384  -0.889432  -0.307885   2.145691   0.716013   0.407542   1.012145  -0.183521  -0.197987  -1.153963   0.408758   0.232220   1.032800  -0.147399   6.878150   4.732534   2.506811  17.389302   0.146655   6.383014  -0.045425   1.992477  -0.498080  -5.410230   0.821681   0.970996  -8.240578   5.918075  -0.595193 -15.673392   0.130002  -5.779898   0.044258   1.911987  -0.490658   5.694775  -2.624736   0.243849  -0.939478  12.288866   0.013233  -0.010419  -8.327357  -1.209859  -0.208946  -0.642060  -0.000959   0.001093  -3.628824  -0.202319   1.738555   9.819905  -0.014445  -0.006606  -5.199218  -0.096107  -0.215084   1.626952  -0.001867  -0.001399
 -2.376678   0.924016   3.968559  -0.946769  -1.011240  -0.292015   2.406246   0.842952   0.393638   1.140931  -0.162346  -0.240736  -1.462794   0.345697   0.201235   1.306942   0.040550   8.052801   5.449166   3.096812  20.245032   0.151028   7.277344  -0.048848   2.313185  -0.223446  -4.263837   0.950955   0.985850  -9.421222   6.544437  -0.868177 -18.426141   0.136639  -6.672139   0.044768   2.154621  -0.769753   4.536559  -3.159566   0.079526  -1.252994  14.080637   0.013879  -0.014314  -9.176351  -1.544739  -0.111937  -0.623251  -0.000734   0.000768  -4.474981  -0.182544   2.013144  11.095925  -0.014960  -0.005232  -5.915229  -0.042862  -0.187921   1.786524  -0.001940  -0.001100
 -2.376624   0.920430   3.967194  -0.902501  -1.102751  -0.269073   2.694437   0.963843   0.378210   1.272621  -0.141199  -0.283903  -1.759269   0.282693   0.164993   1.546049   0.252000   8.962974   6.085727   3.693462  22.778115   0.148545   8.120286  -0.050609   2.632493   0.094138  -3.234440   1.057708   0.970434 -10.327949   7.110152  -1.160400 -20.865256   0.135917  -7.514544   0.044243   2.385692  -1.100218   3.473563  -3.685752  -0.082210  -1.547349  15.745200   0.013617  -0.016592  -9.964208  -1.862052  -0.027244  -0.577052  -0.000512   0.000370  -5.323792  -0.162719   2.240396  12.249448  -0.014562  -0.003822  -6.585431   0.007277  -0.162058   1.927788  -0.001892  -0.000827
 -2.376558   0.915804   3.965830  -0.856737  -1.170077  -0.247919   2.991886   1.080132   0.366037   1.411366  -0.118946  -0.321909  -2.031079   0.224083   0.130018   1.753713   0.464094   9.684182   6.650769   4.278132  25.045227   0.141905   8.911100  -0.050864   2.937921   0.419180  -2.427040   1.147959   0.944584 -11.042671   7.623067  -1.453785 -23.044045   0.130587  -8.303251   0.042771   2.604913  -1.433724   2.633061  -4.182151  -0.231164  -1.812211  17.290325   0.012798  -0.017540 -10.699451  -2.159042   0.047174  -0.532447  -0.000345   0.000081  -6.151923  -0.146514   2.433897  13.304685  -0.013637  -0.002556  -7.211766   0.053404  -0.137641   2.056796  -0.001779  -0.000595
 -2.376352   0.913591   3.964523  -0.891867  -1.265057   0.261560   3.378489   1.199592  -0.033961   1.596654  -0.092412  -0.525906  -2.283869   0.169619   0.083303   1.928445   0.698144  10.512550   7.143758   4.867883  27.197146   0.134787   9.650903  -0.050218   3.227975   0.716733  -1.814596   1.215755   0.896279 -11.772176   8.082282  -1.753774 -25.040881   0.124094  -9.033070   0.040848   2.809424  -1.704464   2.046361  -4.567662  -0.330745  -2.499046  18.689257   0.011028  -0.017898 -11.376792  -2.439738   0.110237  -0.425104  -0.000176  -0.000450  -7.109505  -0.052769   1.907627  15.090123  -0.010633  -0.002078  -7.533034   0.074480  -0.295618   0.297777  -0.004209  -0.000479
